<svg width="9075" height="11950" viewBox="0 0 9075 11950" fill="none" xmlns="http://www.w3.org/2000/svg">
<g clip-path="url(#clip0_237_27)">
<path d="M1829.6 8142.53C1826.46 8142.53 1824.77 8142.66 1824.77 8142.66V8142.53H1829.6Z" fill="#F4E0A8"/>
<path d="M1834.3 8142.53C1834.3 8142.66 1832.6 8142.53 1829.6 8142.53H1834.3Z" fill="#F4E0A8"/>
<path d="M6669.14 3558.18V4064.08C6669.14 4219.48 6543.26 4345.5 6387.86 4345.5H5787.05V4937.99C5787.05 5093.39 5661.04 5219.41 5505.65 5219.41H4999.77C4844.37 5219.41 4718.49 5093.39 4718.49 4937.99V4345.5H4134.13C3978.74 4345.5 3852.86 4219.48 3852.86 4064.08V3558.18C3852.86 3537.94 3854.94 3518.09 3859.12 3499.02C3886.28 3372.09 3998.98 3276.89 4134.13 3276.89H4718.49V2684.27C4718.49 2528.87 4844.37 2402.85 4999.77 2402.85H5505.65C5661.04 2402.85 5787.05 2528.87 5787.05 2684.27V3276.89H6387.86C6543.26 3276.89 6669.14 3402.78 6669.14 3558.18Z" fill="url(#paint0_linear_237_27)"/>
<path d="M5266.29 0C3267.19 0 1627.59 1540.44 1470.11 3499.02C1466.84 3537.8 1464.36 3576.72 1462.4 3615.77V7666.66C1231.66 7701.92 1048.06 7770.22 902.2 7858.1C262.213 8243.21 345.786 9003.77 345.786 9003.77H440.85C440.85 9003.77 123.534 10364.2 10.0569 10969.5C-75.9974 11428.7 416.17 11763.4 631.371 11814.4C678.25 11824.8 734.532 11833.3 798.387 11835.3C880.132 11838.1 951.3 11829.7 1008.5 11818.5C1049.24 11889.3 1129.55 11940.9 1225.39 11949C1371.65 11961.2 1498.96 11867.6 1509.67 11739.6C1520.38 11611.8 1410.56 11498.3 1264.31 11486C1192.23 11480 1124.84 11499.6 1073.66 11536.4L1078.75 11505.5C127.451 11505.5 335.209 10827.6 335.209 10827.6L750.724 9005.99H839.782C839.782 8415.85 1278.15 8228.72 1572.74 8169.69C1696.28 8144.88 1794.61 8142.53 1824.77 8142.53H1834.3C1864.47 8142.53 1962.8 8144.88 2086.33 8169.69C2380.92 8228.72 2819.29 8415.85 2819.29 9005.99H2908.35L3323.86 10827.6C3323.86 10827.6 3530.45 11501.8 2588.03 11505.3C2536.58 11467.3 2468.02 11446.8 2394.76 11453C2248.51 11465.3 2138.69 11578.9 2149.4 11706.7C2160.11 11834.6 2287.43 11928.3 2433.68 11916C2515.95 11909.1 2586.72 11870.1 2631.12 11814.4C2691.19 11827.6 2769.41 11838.5 2860.55 11835.3C2924.54 11833.3 2980.82 11824.8 3027.7 11814.4C3242.9 11763.4 3735.07 11428.7 3649.02 10969.5C3535.54 10364.2 3218.22 9003.77 3218.22 9003.77H3313.29C3313.29 9003.77 3362.78 8552.84 3093.38 8169.69C2937.99 7948.47 2676.43 7749.84 2237.8 7673.32V4184.75C2222.66 4061.6 2214.82 3936.23 2214.82 3808.91C2214.82 3704.31 2220.04 3600.88 2230.36 3499.02C2385.49 1959.11 3685.58 757.289 5266.29 757.289C6951.59 757.289 8317.88 2123.52 8317.88 3808.91C8317.88 5441.8 7035.29 6775.25 5422.72 6856.74C5391.65 6755.14 5344.77 6660.6 5285.09 6575.58C5103.84 6317.41 4803.89 6148.81 4464.51 6148.81C4181.66 6148.81 3926.24 6265.95 3744.08 6454.39C3569.62 6634.74 3462.28 6880.38 3462.28 7151.09C3462.28 7155.53 3462.28 7159.97 3462.54 7164.28C3469.46 7711.71 3915.4 8153.24 4464.51 8153.24C4803.89 8153.24 5103.84 7984.64 5285.09 7726.47C5309.77 7691.47 5332.1 7654.91 5352.08 7616.77C7416.08 7571.2 9075 5883.72 9075 3808.91C9075 1705.37 7369.72 0 5266.29 0ZM4750.35 7583.08C4668.48 7637.54 4570.28 7669.14 4464.51 7669.14C4271.64 7669.14 4103.31 7563.62 4014.26 7407.18H4014.13C3971.03 7331.7 3946.48 7244.2 3946.48 7151.09C3946.48 6945.28 4066.49 6767.55 4240.3 6683.84H4240.43C4308.2 6651.32 4384.2 6633.04 4464.51 6633.04C4631.91 6633.04 4780.91 6712.44 4875.58 6835.85C4942.7 6923.21 4982.53 7032.51 4982.53 7151.09C4982.53 7331.56 4890.34 7490.49 4750.35 7583.08Z" fill="url(#paint1_linear_237_27)"/>
<path d="M1834.3 8142.53C1834.3 8142.66 1832.6 8142.53 1829.6 8142.53H1834.3Z" fill="#F4E0A8"/>
<path d="M1829.6 8142.53C1826.46 8142.53 1824.77 8142.66 1824.77 8142.66V8142.53H1829.6Z" fill="#F4E0A8"/>
</g>
<defs>
<linearGradient id="paint0_linear_237_27" x1="6333.82" y1="2638.31" x2="4676.6" y2="5572.03" gradientUnits="userSpaceOnUse">
<stop stop-color="#0BECCE"/>
<stop offset="1" stop-color="#027BEF"/>
</linearGradient>
<linearGradient id="paint1_linear_237_27" x1="7994.5" y1="999" x2="132" y2="11570" gradientUnits="userSpaceOnUse">
<stop stop-color="#0BECCE"/>
<stop offset="1" stop-color="#027BEF"/>
</linearGradient>
<clipPath id="clip0_237_27">
<rect width="9075" height="11950" fill="white"/>
</clipPath>
</defs>
</svg>
