<svg id="Layer_1" data-name="Layer 1" xmlns="http://www.w3.org/2000/svg" xmlns:xlink="http://www.w3.org/1999/xlink" viewBox="0 0 9275.96 4770.48"><defs><style>.cls-1{fill:none;}.cls-2{clip-path:url(#clip-path);}.cls-3{fill:#f4e0a8;}.cls-4{fill:url(#linear-gradient);}.cls-5{fill:url(#linear-gradient-2);}.cls-6{fill:#0381ee;}.cls-7{fill:#268be2;}</style><clipPath id="clip-path"><rect class="cls-1" x="43.21" y="618.54" width="9069.46" height="3621.32"/></clipPath><linearGradient id="linear-gradient" x1="1868.33" y1="501.03" x2="1366.13" y2="-388" gradientTransform="matrix(1, 0, 0, -1, 0, 1865.83)" gradientUnits="userSpaceOnUse"><stop offset="0" stop-color="#0becce"/><stop offset="1" stop-color="#027bef"/></linearGradient><linearGradient id="linear-gradient-2" x1="2341.31" y1="1037.18" x2="-41.33" y2="-2166.24" xlink:href="#linear-gradient"/></defs><g class="cls-2"><path class="cls-3" d="M681.75,3909.53c-.83,0-1.28,0-1.28,0v0Z"/><path class="cls-3" d="M683,3909.53a7.93,7.93,0,0,1-1.24,0Z"/><path class="cls-3" d="M683,3909.53a7.93,7.93,0,0,1-1.24,0Z"/><path class="cls-3" d="M681.75,3909.53c-.83,0-1.28,0-1.28,0v0Z"/><path class="cls-4" d="M2064.2,1696.8v153.31a85.26,85.26,0,0,1-85.24,85.28H1796.89v179.55a85.28,85.28,0,0,1-85.28,85.28h-153.3a85.25,85.25,0,0,1-85.23-85.28V1935.39H1296a85.25,85.25,0,0,1-85.23-85.28V1696.8a83.45,83.45,0,0,1,1.9-17.92,85.23,85.23,0,0,1,83.33-67.32h177.09V1432a85.25,85.25,0,0,1,85.23-85.28h153.3a85.28,85.28,0,0,1,85.28,85.28v179.59H1979A85.22,85.22,0,0,1,2064.2,1696.8Z"/><path class="cls-5" d="M1639.08,618.54c-605.8,0-1102.67,466.81-1150.39,1060.34-1,11.75-1.74,23.54-2.33,35.37V2941.83c-69.93,10.68-125.56,31.38-169.76,58C122.65,3116.55,148,3347,148,3347h28.81S80.63,3759.3,46.24,3942.73c-26.08,139.14,123.07,240.56,188.28,256A281.64,281.64,0,0,0,348.81,4200c12.34,21.44,36.68,37.08,65.73,39.53,44.31,3.72,82.9-24.66,86.14-63.44s-27.47-80.47-71.79-84.19c-21.84-1.82-43.28,2.08-58.79,13.24-288.28,0-225.33-205.43-225.33-205.43l125.92-552h27c0-178.84,132.84-235.55,222.12-253.43a408.07,408.07,0,0,1,76.37-8.23h2.89a408.14,408.14,0,0,1,76.37,8.23c89.27,17.88,222.12,74.59,222.12,253.43h27l125.91,552s62.07,199.11-223.52,200.18c-15.59-11.52-35.83-12.52-58-10.66-44.32,3.72-77.6,38.14-74.35,76.89s41.82,67.16,86.14,63.44c24.93-2.1,46.38-13.94,59.83-30.79a281.5,281.5,0,0,0,120.18,0c65.22-15.48,214.36-116.9,188.28-256C1114.6,3759.3,1018.44,3347,1018.44,3347h28.8s15-136.64-66.63-252.75c-47.09-67-126.36-127.23-259.28-150.42V1886.68a936.77,936.77,0,0,1-2.25-207.8c47-466.66,441-830.85,920-830.85,510.71,0,924.75,414,924.75,924.75,0,494.83-388.67,898.92-877.34,923.61a303.75,303.75,0,0,0-594.09,89.2c0,1.35,0,2.69.08,4,2.1,165.89,137.23,299.69,303.63,299.69A303.21,303.21,0,0,0,1644.78,2960a295.64,295.64,0,0,0,20.3-33.24c625.47-13.81,1128.19-525.18,1128.19-1153.93C2793.27,1135.33,2276.5,618.54,1639.08,618.54Zm-156.35,2298a156.93,156.93,0,0,1-223.06-53.3h0a157.12,157.12,0,0,1,68.53-219.2h0a157,157,0,0,1,154.52,272.5Z"/><path class="cls-6" d="M3239.9,1528.24q116.73-113.58,296.57-113.58t295,115.16q116.74,113.58,116.74,291.83,0,171.94-110.43,285.53-110.43,112-280.79,112t-271.33-121.47v422.77H3124.74V1816.92Q3124.74,1641.81,3239.9,1528.24Zm295,550.54q107.27,0,176.68-74.14,71-74.15,71-187.72,0-115.15-71-187.72-69.41-74.15-176.68-74.14-108.84,0-179.83,74.14-69.42,72.55-69.41,187.72,0,113.58,69.41,187.72Q3426,2078.79,3534.89,2078.78ZM4170,1528.24q116.73-113.58,296.56-113.58t295,113.58q116.73,113.58,116.73,288.68V2205H4717.34V2097.71q-104.11,121.47-285.53,121.47-164,0-271.3-113.58-105.72-113.58-105.7-288.68T4170,1528.24Zm298.12,550.54q108.85,0,178.27-72.56,71-74.15,71-189.3,0-113.58-71-187.72-69.44-74.15-178.27-74.14-107.27,0-178.23,74.14-69.44,74.13-69.42,187.72,0,115.15,69.42,189.3Q4360.84,2078.78,4468.1,2078.78ZM5201,2205H5038.51v-476.4q0-142,93.07-220.85t260.28-78.87v135.66q-91.45,0-141.95,45.75-49,45.74-48.91,132.5Zm1063.61-321.81q-17.34,146.71-130.92,241.36t-272.9,94.65q-179.84,0-298.16-113.58Q5445.9,1992,5445.9,1816.92t116.73-288.68q118.34-113.58,298.16-113.58,157.76,0,271.3,96.23,115.2,94.65,132.52,239.77h-164q-17.34-85.19-85.2-140.39-66.22-55.21-154.57-55.21-108.85,0-179.87,74.14-69.37,74.13-69.37,187.72,0,115.15,69.37,189.3,71,72.56,179.87,72.56,89.91,0,156.17-53.63,67.78-55.22,85.16-142Zm555.23-468.51q134.08,0,220.84,86.76t86.75,227.16V2205H6965V1750.66q0-93.06-53.63-149.86-52-56.79-138.83-56.79-89.91,0-143.54,56.79t-53.63,149.86V2205H6414.43V1113.36h160.89v432.23Q6654.16,1414.66,6819.84,1414.66Zm566.73,113.58q116.73-113.58,296.56-113.58t295,113.58q116.71,113.58,116.72,288.68V2205H7934V2097.71q-104.13,121.47-285.53,121.47-164.08,0-271.34-113.58Q7271.42,1992,7271.4,1816.92T7386.57,1528.24Zm298.15,550.54q108.81,0,178.24-72.56,71-74.15,71-189.3,0-113.58-71-187.72-69.39-74.15-178.24-74.14-107.31,0-178.27,74.14Q7437,1703.33,7437,1816.92q0,115.15,69.41,189.3Q7577.43,2078.78,7684.72,2078.78ZM8334,1528.24q116.73-113.58,296.56-113.58t295,113.58q116.73,113.58,116.73,288.68V2205H8881.38V2097.71q-104.11,121.47-285.53,121.47-164.09,0-271.34-113.58-105.66-113.58-105.7-288.68T8334,1528.24Zm298.16,550.54q108.8,0,178.23-72.56,71-74.15,71-189.3,0-113.58-71-187.72-69.37-74.15-178.23-74.14-107.32,0-178.27,74.14-69.44,74.13-69.42,187.72,0,115.15,69.42,189.3Q8524.83,2078.78,8632.14,2078.78Z"/><path class="cls-7" d="M7037.18,3001.74q-21.63,116.66-110,189.09t-213.57,72.44q-144.85,0-238-93.13-93.11-94.08-93.15-239,0-143,93.15-235.19,93.16-93.13,238-93.14,124.16,0,212.62,71.5,89.34,71.51,111,186.27h-33.86Q6980.73,2759,6901.73,2696q-78.1-63-188.16-63-129.84,0-213.56,84.67-83.7,83.73-83.72,213.55,0,131.7,83.72,217.32,83.74,84.66,213.56,84.67,111,0,189.08-64,79.07-64,100.67-167.46ZM7349.75,2791q103.48,0,170.28,66.79,67.73,66.79,67.74,169.34T7520,3196.47q-66.81,66.81-170.28,66.8t-170.28-66.8q-66.77-66.78-66.79-169.33t66.79-169.34Q7247.24,2791,7349.75,2791Zm147.73,86.55q-58.36-59.26-147.73-59.27t-147.69,59.27q-57.41,58.32-57.4,149.58t57.4,150.52q58.3,58.34,147.69,58.33t147.73-58.33q58.31-59.26,58.3-150.52T7497.48,2877.56Zm220.14,378.18H7687.5V2952.82q0-71.51,41.38-112.89,42.33-41.4,113.84-41.4v28.22q-58.3,0-92.2,33.87-32.91,33.87-32.9,94.08Zm369.06-457.21v27.29H7980.37v429.92h-30.12V2825.82h-85.58v-27.29h85.58V2683.76h30.12v114.77Zm512.6,227.67a43.14,43.14,0,0,1-1,10.34H8155.25q3.72,87.51,61.13,143.94,58.37,56.45,145.82,56.45,71.49,0,127-42.33t71.51-109.13h32q-17.86,78.08-82.81,127.94-63.94,49.86-148.64,49.86-103.49,0-170.28-66.8t-66.79-169.33q0-102.54,66.79-169.34,67.77-66.8,170.28-66.79,103.5,0,170.29,66.79Q8598.33,2923.65,8599.28,3026.2Zm-94.06-154.29q-57.4-54.55-143-54.56t-143.92,54.56q-57.39,54.57-62.11,139.23h413Q8563.54,2926.48,8505.22,2871.91Zm580.94-73.38L8885.79,3026.2l200.37,229.54h-36.7L8864.15,3045l-186.29,210.73h-36.67l201.32-228.6-200.37-228.61h36.67l185.34,209.79,185.31-209.79Z"/></g></svg>